<svg xmlns="http://www.w3.org/2000/svg" xmlns:xlink="http://www.w3.org/1999/xlink" viewBox="0 0 24 24" xml:space="preserve">
  <circle fill="#a7001b" cx="12" cy="12" r="12"/>
  <path fill="#ff2630" d="M11.5,12c0,2.2-1.8,4-4,4c-0.9,0-1.8-0.3-2.6-0.9c-0.1-0.1-0.3-0.2-0.4-0.3C3.8,14,3.4,13,3.4,12c0-2.2,1.8-4,4-4C7.6,8,7.8,8,8,8C9,8.1,9.8,8.6,10.4,9.3c0,0,0,0.1,0,0.1c0,0,0,0,0,0l0,0l-1.1,1c0,0-0.1,0-0.1,0c0,0,0,0,0,0l0,0C8.8,9.8,8.2,9.5,7.4,9.5c-1.1,0-2.1,0.8-2.3,1.9c-0.1,0.5-0.1,1,0.1,1.4c0.1,0.3,0.3,0.6,0.5,0.9C5.8,13.8,6,14,6.1,14.1c0.4,0.3,0.9,0.5,1.4,0.5c1,0,1.9-0.7,2.2-1.7H8.6c-0.4,0-0.7-0.3-0.7-0.7l0,0l0,0c0-0.4,0.3-0.7,0.7-0.7h2.8c0,0,0.1,0,0.1,0.1C11.5,11.7,11.5,11.8,11.5,12z"/>
  <path fill="#ff2630" d="M16.6,8c-2.2,0-4,1.8-4,4c0,2.2,1.8,4,4,4c2.2,0,4-1.8,4-4l0,0C20.6,9.8,18.8,8,16.6,8z M16.6,14.5 c-1.3,0-2.4-1.1-2.4-2.5s1.1-2.5,2.4-2.5s2.4,1.1,2.4,2.5S17.9,14.5,16.6,14.5z"/>
</svg>
