<?xml version="1.0" standalone="no"?>
<!DOCTYPE svg PUBLIC "-//W3C//DTD SVG 1.1//EN" "http://www.w3.org/Graphics/SVG/1.1/DTD/svg11.dtd">
<svg xmlns="http://www.w3.org/2000/svg">
<metadata>Generated by Fontastic.me</metadata>
<defs>
<font id="passport" horiz-adv-x="512">
<font-face font-family="passport" units-per-em="512" ascent="480" descent="-32"/>
<missing-glyph horiz-adv-x="512" />

<glyph glyph-name="marker" unicode="&#97;" d="M256 459c-80 0-144-65-144-145 0-32 10-62 28-86l93-161c0-1 1-2 2-3l0 0 0 0c5-6 12-11 21-11 8 0 15 4 20 10l0-1 1 2c1 2 2 4 3 6l91 157c18 24 29 55 29 87 0 80-64 145-144 145z m-1-218c-40 0-72 32-72 71 0 40 32 71 72 71 39 0 71-31 71-71 0-39-32-71-71-71z"/>
<glyph glyph-name="ticket" unicode="&#102;" d="M126 216c0 0 167 167 167 167 0 0 91-91 91-91 0 0-167-167-167-167 0 0-91 91-91 91m363 125c5-5 8-11 8-18 0-8-3-14-8-19 0 0-281-281-281-281-6-6-12-9-19-9-6 0-13 3-18 9 0 0-39 38-39 38 4 7 6 15 6 25 0 14-5 27-15 37-10 10-22 15-36 15-7 0-16-2-26-7 0 0-37 39-37 39-6 5-9 12-9 18 0 7 3 13 9 19 0 0 281 281 281 281 5 5 11 8 19 8 7 0 13-3 18-8 0 0 38-38 38-38-4-8-6-16-6-25 0-14 5-26 15-36 10-10 23-15 37-15 9 0 17 2 25 6 0 0 38-39 38-39m-272-257c0 0 208 208 208 208 0 0-132 132-132 132 0 0-209-208-209-208 0 0 133-132 133-132"/>
<glyph glyph-name="user-outline" unicode="&#103;" d="M505 86c-36 85-105 125-158 143 24 33 37 81 37 140 1 99-81 126-124 127-44 0-126-25-127-125 0-59 12-107 35-140-54-18-123-56-161-141l-9-20 21-8c4-2 109-45 237-46 127-1 233 40 237 41l21 8z m-246 367c9 0 83-4 83-84-1-64-18-112-48-133l-37-26-36 27c-29 21-46 70-45 134 0 80 75 82 83 82z m-3-394c-86 1-163 22-199 34 39 69 105 95 156 106l44 9 45-10c50-11 116-39 154-108-36-12-113-32-200-31z"/>
<glyph glyph-name="trash-o" unicode="&#104;" d="M201 302l0-165c0-3-1-5-2-6-2-2-4-3-7-3l-18 0c-3 0-5 1-7 3-2 1-2 3-2 6l0 165c0 2 0 5 2 6 2 2 4 3 7 3l18 0c3 0 5-1 7-3 1-1 2-4 2-6z m73 0l0-165c0-3-1-5-2-6-2-2-4-3-7-3l-18 0c-3 0-5 1-7 3-1 1-2 3-2 6l0 165c0 2 1 5 2 6 2 2 4 3 7 3l18 0c3 0 5-1 7-3 1-1 2-4 2-6z m73 0l0-165c0-3 0-5-2-6-2-2-4-3-7-3l-18 0c-3 0-5 1-7 3-1 1-2 3-2 6l0 165c0 2 1 5 2 6 2 2 4 3 7 3l18 0c3 0 5-1 7-3 2-1 2-4 2-6z m37-207l0 271-256 0 0-271c0-4 1-8 2-12 1-3 3-6 4-7 2-2 3-3 3-3l238 0c0 0 1 1 3 3 1 1 3 4 4 7 1 4 2 8 2 12z m-192 307l128 0-14 34c-1 1-3 2-5 3l-90 0c-2-1-4-2-5-3z m265-9l0-18c0-3-1-5-2-7-2-1-4-2-7-2l-27 0 0-271c0-16-5-30-14-41-9-12-20-17-32-17l-238 0c-12 0-23 5-32 16-9 11-14 25-14 41l0 272-27 0c-3 0-5 1-7 2-1 2-2 4-2 7l0 18c0 3 1 5 2 7 2 1 4 2 7 2l88 0 20 48c3 7 8 13 16 18 7 5 15 7 22 7l92 0c7 0 15-2 22-7 8-5 13-11 16-18l20-48 88 0c3 0 5-1 7-2 1-2 2-4 2-7z"/>
<glyph glyph-name="pencil" unicode="&#105;" d="M140 73l26 26-67 67-26-26 0-30 37 0 0-37z m150 265c0 4-2 7-7 7-1 0-3-1-4-2l-155-155c-2-2-2-3-2-5 0-4 2-6 6-6 2 0 4 0 5 2l155 154c1 2 2 3 2 5z m-16 55l119-119-238-237-118 0 0 118z m195-27c0-10-3-19-10-26l-48-47-118 118 47 48c7 7 15 10 26 10 10 0 18-3 26-10l67-67c7-8 10-16 10-26z"/>
<glyph glyph-name="history" unicode="&#107;" d="M475 256c0-30-5-58-17-85-12-27-27-51-47-70-19-20-43-35-70-47-27-12-55-17-85-17-33 0-64 6-93 20-30 14-55 34-76 59-1 2-2 4-2 6 0 3 1 4 3 6l39 39c2 2 4 3 7 3 3 0 5-2 7-3 13-19 31-33 51-42 20-10 41-15 64-15 20 0 39 4 57 11 18 8 33 18 46 32 14 13 24 28 32 46 7 18 11 37 11 57 0 20-4 39-11 57-8 18-18 33-32 46-13 14-28 24-46 32-18 7-37 11-57 11-19 0-37-3-54-10-17-7-32-16-45-29l39-39c6-6 7-13 4-20-4-8-9-11-17-11l-128 0c-5 0-9 1-13 5-4 4-5 8-5 13l0 128c0 8 3 13 11 17 7 3 14 2 20-4l37-37c20 19 44 34 70 45 26 10 53 15 81 15 30 0 58-5 85-17 27-12 51-27 70-47 20-19 35-43 47-70 12-27 17-55 17-85z m-182 82l0-128c0-2-1-5-3-6-2-2-4-3-7-3l-91 0c-3 0-5 1-7 3-1 1-2 4-2 6l0 19c0 2 1 4 2 6 2 2 4 3 7 3l64 0 0 100c0 3 1 5 3 7 1 2 3 2 6 2l18 0c3 0 5 0 7-2 2-2 3-4 3-7z"/>
<glyph glyph-name="search" unicode="&#108;" d="M493 96l-125 125c18 29 29 62 29 99 0 106-86 192-192 192-106 0-192-86-192-192 0-106 86-192 192-192 36 0 70 11 99 28l125-124c9-9 23-9 32 0l32 32c9 9 9 23 0 32z m-288 96c-71 0-128 57-128 128 0 71 57 128 128 128 70 0 128-57 128-128 0-71-58-128-128-128z"/>
<glyph glyph-name="up-dir" unicode="&#109;" d="M138 154c0 0 118 204 118 204 0 0 118-204 118-204 0 0-236 0-236 0"/>
<glyph glyph-name="down-dir" unicode="&#110;" d="M374 358c0 0-118-204-118-204 0 0-118 204-118 204 0 0 236 0 236 0"/>
<glyph glyph-name="key" unicode="&#111;" d="M452 390c7-39 2-76-14-110-16-34-42-54-77-60-22-4-44-4-66-1 0 0-61-99-61-99 0 0-36-6-36-6 0 0-53-85-53-85-5-10-12-15-23-17 0 0-39-7-39-7-4-1-8-1-12 2-3 3-5 7-6 11 0 0-8 51-8 51-3 10-1 19 6 28 0 0 132 198 132 198-8 17-14 37-19 61-6 37 3 68 27 96 24 28 56 45 95 52 36 7 69-1 100-23 30-22 48-53 54-91m-64-39c10 15 14 32 11 50-3 18-12 32-27 42-14 11-30 15-47 12-17-4-30-13-41-28-2-4-4-8-6-12-1-4-1-7 0-10 1-3 2-6 2-8 1-3 3-5 7-9 4-3 7-6 9-8 3-1 6-4 11-8 6-4 10-6 12-8 2-2 6-5 11-9 6-4 10-7 12-8 3-1 6-3 10-6 4-3 7-4 10-4 2 0 5 0 8 0 4 1 7 2 10 5 2 2 5 5 8 9"/>
<glyph glyph-name="check" unicode="&#112;" d="M212 77c-11 0-21 5-28 14 0 0-92 121-92 121-6 8-8 17-6 27 1 9 5 17 13 23 7 6 16 9 26 7 10-1 18-6 24-14 0 0 60-79 60-79 0 0 152 243 152 243 5 8 13 13 22 15 9 2 18 1 27-4 8-5 13-13 15-22 3-9 1-18-4-27 0 0-179-287-179-287-7-11-16-16-28-16 0 0-2-1-2-1"/>
<glyph glyph-name="diamond" unicode="&#113;" d="M24 293l178-190-86 190z m232-221l100 221-200 0z m-139 257l58 110-74 0-83-110z m193-226l178 190-92 0z m-151 226l194 0-58 110-78 0z m236 0l99 0-83 110-74 0z m40 139l110-146c3-4 4-8 4-12-1-5-2-8-5-12l-275-292c-3-4-7-6-13-6-6 0-10 2-13 6l-275 292c-3 4-4 7-5 12 0 4 1 8 4 12l110 146c3 5 8 7 14 7l330 0c6 0 11-2 14-7z"/>
<glyph glyph-name="upload" unicode="&#114;" d="M384 91c0 5-2 10-5 13-4 4-8 6-13 6-5 0-10-2-13-6-4-3-6-8-6-13 0-5 2-9 6-12 3-4 8-6 13-6 5 0 9 2 13 6 3 3 5 7 5 12z m73 0c0 5-2 10-5 13-4 4-8 6-13 6-5 0-9-2-13-6-4-3-5-8-5-13 0-5 1-9 5-12 4-4 8-6 13-6 5 0 9 2 13 6 3 3 5 7 5 12z m37 64l0-91c0-8-3-14-8-19-6-6-12-8-20-8l-420 0c-8 0-14 2-20 8-5 5-8 11-8 19l0 91c0 8 3 15 8 20 6 5 12 8 20 8l122 0c4-11 10-20 20-26 9-7 20-11 31-11l74 0c11 0 22 4 31 11 10 6 16 15 20 26l122 0c8 0 14-3 20-8 5-5 8-12 8-20z m-93 186c-3-8-9-12-17-12l-73 0 0-128c0-5-2-9-6-13-3-3-7-5-12-5l-74 0c-5 0-9 2-12 5-4 4-6 8-6 13l0 128-73 0c-8 0-14 4-17 12-3 7-2 14 4 19l128 128c4 4 8 6 13 6 5 0 9-2 13-6l128-128c6-5 7-12 4-19z"/>
<glyph glyph-name="eye" unicode="&#115;" d="M475 238c-29 45-65 78-108 101 11-20 17-42 17-65 0-35-13-65-38-90-25-25-55-38-90-38-35 0-65 13-90 38-25 25-38 55-38 90 0 23 6 45 17 65-43-23-79-56-108-101 25-39 57-70 95-94 38-23 79-34 124-34 45 0 86 11 124 34 38 24 70 55 95 94z m-205 109c0 4-2 7-4 10-3 3-6 4-10 4-24 0-44-8-61-25-17-17-26-38-26-62 0-4 1-7 4-9 3-3 6-4 10-4 4 0 7 1 10 4 2 2 4 5 4 9 0 17 5 31 17 42 12 12 26 18 42 18 4 0 7 1 10 4 2 2 4 6 4 9z m242-109c0-7-2-13-6-20-26-44-62-79-107-105-45-27-93-40-143-40-50 0-98 13-143 40-45 26-81 61-107 105-4 7-6 13-6 20 0 6 2 13 6 19 26 44 62 79 107 106 45 26 93 39 143 39 50 0 98-13 143-39 45-27 81-62 107-106 4-6 6-13 6-19z"/>
<glyph glyph-name="eye-slash" unicode="&#116;" d="M159 131l22 40c-17 12-30 27-39 45-9 19-14 38-14 58 0 23 6 45 17 65-43-23-79-56-108-101 31-49 72-85 122-107z m111 216c0 4-2 7-4 10-3 3-6 4-10 4-24 0-44-8-61-25-17-17-26-38-26-62 0-4 1-7 4-9 3-3 6-4 10-4 4 0 7 1 10 4 2 2 4 5 4 9 0 17 5 31 17 42 12 12 26 18 42 18 4 0 7 1 10 4 2 2 4 6 4 9z m103 55c0-1 0-2 0-3-20-35-50-89-90-161-40-72-70-126-90-162l-14-26c-2-3-5-4-8-4-2 0-15 6-38 20-3 2-5 4-5 8 0 2 4 10 13 25-28 12-53 28-76 49-23 21-43 44-59 70-4 6-6 12-6 20 0 7 2 14 6 19 29 45 65 81 108 106 44 26 91 39 142 39 17 0 34-1 51-5l16 28c2 3 4 5 8 5 1 0 3-1 5-2 2-1 5-3 9-4 3-2 6-4 9-6 3-1 6-3 9-5 3-2 5-3 6-3 3-2 4-5 4-8z m11-128c0-26-8-50-23-72-15-22-35-38-59-47l80 143c1-8 2-16 2-24z m128-36c0-7-2-14-6-20-7-12-18-26-31-41-28-33-62-59-99-77-38-18-78-27-120-27l21 38c41 3 78 16 112 39 35 23 63 52 86 88-21 34-48 62-80 84l18 32c18-12 35-27 52-44 17-17 30-34 41-53 4-6 6-13 6-19z"/>
<glyph glyph-name="th-large" unicode="&#117;" d="M238 219l0-109c0-10-4-19-11-26-7-7-16-11-26-11l-146 0c-10 0-19 4-26 11-7 7-11 16-11 26l0 109c0 10 4 19 11 26 7 7 16 11 26 11l146 0c10 0 19-4 26-11 7-7 11-16 11-26z m0 220l0-110c0-10-4-18-11-26-7-7-16-10-26-10l-146 0c-10 0-19 3-26 10-7 8-11 16-11 26l0 110c0 10 4 18 11 26 7 7 16 10 26 10l146 0c10 0 19-3 26-10 7-8 11-16 11-26z m256-220l0-109c0-10-4-19-11-26-7-7-16-11-26-11l-146 0c-10 0-19 4-26 11-7 7-11 16-11 26l0 109c0 10 4 19 11 26 7 7 16 11 26 11l146 0c10 0 19-4 26-11 7-7 11-16 11-26z m0 220l0-110c0-10-4-18-11-26-7-7-16-10-26-10l-146 0c-10 0-19 3-26 10-7 8-11 16-11 26l0 110c0 10 4 18 11 26 7 7 16 10 26 10l146 0c10 0 19-3 26-10 7-8 11-16 11-26z"/>
<glyph glyph-name="building-o" unicode="&#118;" d="M165 137l0-18c0-3-1-5-3-7-2-1-4-2-7-2l-18 0c-2 0-4 1-6 2-2 2-3 4-3 7l0 18c0 3 1 5 3 7 2 1 4 2 6 2l18 0c3 0 5-1 7-2 2-2 3-4 3-7z m0 73l0-18c0-2-1-5-3-6-2-2-4-3-7-3l-18 0c-2 0-4 1-6 3-2 1-3 4-3 6l0 18c0 3 1 5 3 7 2 2 4 2 6 2l18 0c3 0 5 0 7-2 2-2 3-4 3-7z m73 0l0-18c0-2-1-5-3-6-2-2-4-3-6-3l-19 0c-2 0-4 1-6 3-2 1-3 4-3 6l0 18c0 3 1 5 3 7 2 2 4 2 6 2l19 0c2 0 4 0 6-2 2-2 3-4 3-7z m-73 73l0-18c0-2-1-4-3-6-2-2-4-3-7-3l-18 0c-2 0-4 1-6 3-2 2-3 4-3 6l0 18c0 3 1 5 3 7 2 2 4 3 6 3l18 0c3 0 5-1 7-3 2-2 3-4 3-7z m219-146l0-18c0-3-1-5-3-7-2-1-4-2-6-2l-18 0c-3 0-5 1-7 2-2 2-3 4-3 7l0 18c0 3 1 5 3 7 2 1 4 2 7 2l18 0c2 0 4-1 6-2 2-2 3-4 3-7z m-73 73l0-18c0-2-1-5-3-6-2-2-4-3-6-3l-19 0c-2 0-4 1-6 3-2 1-3 4-3 6l0 18c0 3 1 5 3 7 2 2 4 2 6 2l19 0c2 0 4 0 6-2 2-2 3-4 3-7z m-73 73l0-18c0-2-1-4-3-6-2-2-4-3-6-3l-19 0c-2 0-4 1-6 3-2 2-3 4-3 6l0 18c0 3 1 5 3 7 2 2 4 3 6 3l19 0c2 0 4-1 6-3 2-2 3-4 3-7z m-73 74l0-19c0-2-1-4-3-6-2-2-4-3-7-3l-18 0c-2 0-4 1-6 3-2 2-3 4-3 6l0 19c0 2 1 4 3 6 2 2 4 3 6 3l18 0c3 0 5-1 7-3 2-2 3-4 3-6z m219-147l0-18c0-2-1-5-3-6-2-2-4-3-6-3l-18 0c-3 0-5 1-7 3-2 1-3 4-3 6l0 18c0 3 1 5 3 7 2 2 4 2 7 2l18 0c2 0 4 0 6-2 2-2 3-4 3-7z m-73 73l0-18c0-2-1-4-3-6-2-2-4-3-6-3l-19 0c-2 0-4 1-6 3-2 2-3 4-3 6l0 18c0 3 1 5 3 7 2 2 4 3 6 3l19 0c2 0 4-1 6-3 2-2 3-4 3-7z m-73 74l0-19c0-2-1-4-3-6-2-2-4-3-6-3l-19 0c-2 0-4 1-6 3-2 2-3 4-3 6l0 19c0 2 1 4 3 6 2 2 4 3 6 3l19 0c2 0 4-1 6-3 2-2 3-4 3-6z m-73 73l0-19c0-2-1-4-3-6-2-2-4-3-7-3l-18 0c-2 0-4 1-6 3-2 2-3 4-3 6l0 19c0 2 1 4 3 6 2 2 4 3 6 3l18 0c3 0 5-1 7-3 2-2 3-4 3-6z m219-147l0-18c0-2-1-4-3-6-2-2-4-3-6-3l-18 0c-3 0-5 1-7 3-2 2-3 4-3 6l0 18c0 3 1 5 3 7 2 2 4 3 7 3l18 0c2 0 4-1 6-3 2-2 3-4 3-7z m-73 74l0-19c0-2-1-4-3-6-2-2-4-3-6-3l-19 0c-2 0-4 1-6 3-2 2-3 4-3 6l0 19c0 2 1 4 3 6 2 2 4 3 6 3l19 0c2 0 4-1 6-3 2-2 3-4 3-6z m-73 73l0-19c0-2-1-4-3-6-2-2-4-3-6-3l-19 0c-2 0-4 1-6 3-2 2-3 4-3 6l0 19c0 2 1 4 3 6 2 2 4 3 6 3l19 0c2 0 4-1 6-3 2-2 3-4 3-6z m146-73l0-19c0-2-1-4-3-6-2-2-4-3-6-3l-18 0c-3 0-5 1-7 3-2 2-3 4-3 6l0 19c0 2 1 4 3 6 2 2 4 3 7 3l18 0c2 0 4-1 6-3 2-2 3-4 3-6z m-73 73l0-19c0-2-1-4-3-6-2-2-4-3-6-3l-19 0c-2 0-4 1-6 3-2 2-3 4-3 6l0 19c0 2 1 4 3 6 2 2 4 3 6 3l19 0c2 0 4-1 6-3 2-2 3-4 3-6z m73 0l0-19c0-2-1-4-3-6-2-2-4-3-6-3l-18 0c-3 0-5 1-7 3-2 2-3 4-3 6l0 19c0 2 1 4 3 6 2 2 4 3 7 3l18 0c2 0 4-1 6-3 2-2 3-4 3-6z m-73-393l110 0 0 438-330 0 0-438 110 0 0 64c0 2 1 4 3 6 2 2 4 3 6 3l92 0c2 0 4-1 6-3 2-2 3-4 3-6z m146 457l0-476c0-5-2-9-5-13-4-3-8-5-13-5l-366 0c-5 0-9 2-13 5-3 4-5 8-5 13l0 476c0 5 2 9 5 13 4 3 8 5 13 5l366 0c5 0 9-2 13-5 3-4 5-8 5-13z"/>
<glyph glyph-name="atom" unicode="&#119;" d="M256 320c-35 0-64-29-64-64 0-35 29-64 64-64 35 0 64 29 64 64 0 35-29 64-64 64z m197-8c-7 2-13 6-19 11-8-16-19-32-30-49-18 23-38 46-61 69-23 22-46 43-69 61 55 39 108 62 145 62 16 0 27-4 35-12 9-8 12-22 12-38 1 0 2 0 3 0 6 0 12-1 18-3 1 24-5 43-18 56-12 12-28 18-50 18-43 0-102-26-163-70-61 44-120 70-163 70-5 0-9 0-13-1 6-5 10-12 13-20 37 0 90-23 145-62-23-18-46-39-69-61-22-23-43-46-61-69-18 26-33 51-44 76-7 16-12 32-15 45-2 0-4 0-6 0-6 0-11 1-16 2 3-17 9-35 18-56 12-27 29-56 50-85-21-29-38-58-50-85-26-58-27-104-2-128 12-12 28-18 50-18 64 0 162 56 250 144 22 23 43 46 61 69 59-83 76-154 50-180-8-8-19-12-35-12-20 0-44 7-71 19-3-7-7-13-12-18 31-14 59-22 83-22 22 0 38 6 50 18 37 37 14 122-52 213 14 19 26 38 36 56z m-360-266c-16 0-27 4-35 12-18 17-15 55 6 104 11 25 26 50 44 76 18-23 39-47 61-69 23-23 46-43 69-61-55-39-108-62-145-62z m235 138c-23-23-48-44-72-63-24 19-48 40-72 63-23 24-44 48-63 72 19 24 40 48 63 72 24 23 48 44 72 63 24-19 48-40 72-63 24-24 45-48 63-72-19-24-40-48-63-72z m141 200c-11 0-21-10-21-21 0-12 10-22 21-22 12 0 22 10 22 22 0 11-10 21-22 21z m-170-277c-12 0-22-10-22-22 0-11 10-21 22-21 11 0 21 10 21 21 0 12-10 22-21 22z m-256 320c11 0 21 9 21 21 0 12-10 21-21 21-12 0-22-9-22-21 0-12 10-21 22-21z"/>
<glyph glyph-name="ellipsis-h" unicode="&#100;" d="M165 302l0-55c0-8-3-14-8-20-6-5-12-8-20-8l-55 0c-7 0-14 3-19 8-5 6-8 12-8 20l0 55c0 7 3 14 8 19 5 5 12 8 19 8l55 0c8 0 14-3 20-8 5-5 8-12 8-19z m146 0l0-55c0-8-3-14-8-20-5-5-12-8-20-8l-54 0c-8 0-15 3-20 8-5 6-8 12-8 20l0 55c0 7 3 14 8 19 5 5 12 8 20 8l54 0c8 0 15-3 20-8 5-5 8-12 8-19z m146 0l0-55c0-8-3-14-8-20-5-5-12-8-19-8l-55 0c-8 0-14 3-20 8-5 6-8 12-8 20l0 55c0 7 3 14 8 19 6 5 12 8 20 8l55 0c7 0 14-3 19-8 5-5 8-12 8-19z"/>
<glyph glyph-name="dashboard" unicode="&#98;" d="M6 489l13 0 0 17-13 0z m0-13l13 0 0 10-13 0z m17 0l13 0 0 17-13 0z m0 30l0-10 13 0 0 10z"/>
<glyph glyph-name="info-circled" unicode="&#106;" d="M253 492c65 0 120-22 167-67 46-45 70-100 72-165 0-65-22-121-68-167-45-47-100-71-165-73-65 0-121 22-167 68-47 45-71 100-72 165-1 65 21 121 67 167 46 47 101 71 166 72m27-78c-15 0-26-4-34-13-8-8-12-16-12-25 0-10 2-17 8-23 6-5 14-8 25-8 13 0 24 4 31 11 8 8 12 17 12 28 0 20-10 30-30 30m-62-304c10 0 25 4 43 13 19 9 37 22 54 40 0 0-9 12-9 12-16-12-28-18-37-18-4 0-5 6-2 19 0 0 22 82 22 82 9 33 5 49-11 49-11 0-26-5-46-15-20-10-40-22-59-38 0 0 8-13 8-13 18 11 31 17 38 17 4 0 4-6 0-17 0 0-18-78-18-78-9-36-3-53 17-53"/>
<glyph glyph-name="permissions" unicode="&#99;" d="M1 84c1 7 5 13 10 18 62 62 124 124 186 186 5 4 6 8 3 14-31 90 29 190 123 206 7 1 14 1 20 3l15 0c7-2 13-2 20-3 68-12 122-67 132-135 4-28 1-56-10-82-1-4-3-5-7-5-11 0-22 0-33 0 5 10 9 19 12 29 20 72-23 145-96 161-70 15-140-33-151-103-5-28 0-55 13-79 3-5 2-8-2-12-67-66-133-133-200-199-3-3-4-6-4-11 0-11 0-23 0-34 0-4 1-6 5-6 12 1 24 1 37 0 2 0 5 1 6 3 6 7 13 13 19 19 7 7 15 11 25 11 10-1 19 0 29-1 5 0 6 2 6 7-1 8 0 17 0 25 0 18 14 32 31 32 10 1 19 1 28 0 4 0 5 1 5 5-1 11 0 21 0 32 0 7 1 13 6 19 14 16 30 30 46 46l0-45c0-2-1-3-3-4-13-9-17-22-15-38 1-4 0-9 0-14 0-8-3-17-9-23-7-6-15-9-24-9-8-1-17-1-26 0-4 0-5-2-5-6 0-9 0-18 0-27 0-17-14-31-32-31-11-1-21-1-32 0-3 0-6-1-8-4-5-4-10-9-14-14-6-6-12-11-20-14l-59 0c-15 5-25 14-27 30z m0-53c2-16 12-25 27-30-9 0-17 0-25 0-2 0-3 0-3 2 0 10 0 19 0 28 1 0 1 0 1 0z m349 409c6-1 12-3 17-7 23-16 42-37 60-60 7-8 7-15 3-23-8-22-23-38-45-46-7-3-16-2-23 3-24 17-45 39-63 63-4 5-5 12-3 18 9 24 24 42 48 50 2 1 5 2 6 2z m28-110c1 1 2 1 2 1 11 5 18 12 23 22 2 4 2 6-1 10-14 18-31 34-49 49-3 1-4 1-7 0-10-5-17-13-22-23-1-3-1-5 1-8 14-19 31-34 49-49 1 0 3-1 4-2z m-31-109c0-11-9-20-20-20-10 0-19 9-19 20 0 10 9 19 19 19 11 0 20-9 20-19z m0-84c0-11-9-20-20-20-10 0-19 9-19 20 0 10 9 19 19 19 11 0 20-9 20-19z m0-85c0-10-9-19-20-19-10 0-19 9-19 19 0 11 9 20 19 20 11 0 20-9 20-20z m33 188l112 0c11 0 19-9 19-19 0-11-8-20-19-20l-112 0c-11 0-19 9-19 20 0 10 8 19 19 19z m0-84l112 0c11 0 19-9 19-19 0-11-8-20-19-20l-112 0c-11 0-19 9-19 20 0 10 8 19 19 19z m0-84l112 0c11 0 19-9 19-20 0-10-8-19-19-19l-112 0c-11 0-19 9-19 19 0 11 8 20 19 20z"/>
<glyph glyph-name="account" unicode="&#101;" d="M256 0c-141 0-256 115-256 256 0 141 115 256 256 256 141 0 256-115 256-256 0-141-115-256-256-256z m0 480c-124 0-224-100-224-224 0-124 100-224 224-224 124 0 224 100 224 224 0 124-100 224-224 224z m0-413c-63 0-122 32-157 85l-3 4 0 4c1 64 113 90 160 90 47 0 159-26 160-90l0-5-3-4c-35-53-94-84-157-84z m-128 98c29-41 77-66 127-66 51 0 98 25 128 66-7 29-80 53-128 53-48 0-119-24-127-53z m128 99c-49 0-88 39-88 88 0 49 39 88 88 88 49 0 88-39 88-88 0-49-39-88-88-88z m0 144c-31 0-56-25-56-56 0-31 25-56 56-56 31 0 56 25 56 56 0 15-6 29-16 40-11 10-25 16-40 16z"/>
<glyph glyph-name="history-1" unicode="&#120;" d="M292 508c-121 0-219-98-219-219l-73 0 95-95 2-3 98 98-73 0c-1 82 57 152 137 168 80 17 161-26 192-102 32-75 5-162-63-208-68-45-158-36-216 21l-34-34c70-70 178-85 264-35 87 50 128 151 103 247-26 96-113 162-213 162z m-24-122l0-122 104-62 18 30-85 51 0 103z"/>
<glyph glyph-name="actions" unicode="&#121;" d="M171 256c0-20-17-37-37-37-20 0-36 17-36 37 0 20 16 37 36 37 20 0 37-17 37-37z m122 0c0-20-17-37-37-37-20 0-37 17-37 37 0 20 17 37 37 37 20 0 37-17 37-37z m121 0c0-20-16-37-36-37-20 0-37 17-37 37 0 20 17 37 37 37 20 0 36-17 36-37z m-158-256c-141 0-256 115-256 256 0 141 115 256 256 256 141 0 256-115 256-256 0-141-115-256-256-256z m0 475c-121 0-219-98-219-219 0-121 98-219 219-219 121 0 219 98 219 219 0 121-98 219-219 219z"/>
<glyph glyph-name="minus" unicode="&#122;" d="M256 0c-141 0-256 115-256 256 0 141 115 256 256 256 141 0 256-115 256-256 0-141-115-256-256-256z m0 478c-123 0-222-99-222-222 0-123 99-222 222-222 123 0 222 99 222 222 0 123-99 222-222 222z m-94-213l205 0 0-35-205 0z"/>
<glyph glyph-name="pass" unicode="&#65;" d="M410 94l-317 98c-8 2-12 11-10 18l60 198c2 4 4 7 8 9 3 2 7 2 11 1l316-98c4-1 7-4 9-7 2-4 2-8 1-11l-59-198c-1-4-4-7-7-9-4-2-8-2-12-1z m-252 307l-58-194 312-96 59 194-313 96m8 34l317-99c8-2 15-8 19-15 4-8 5-16 2-24l-60-198c-5-16-22-26-39-21l-317 98c-8 2-15 8-18 15-4 8-5 16-3 24l60 198c5 16 23 26 40 21z m-126-40l355 0c19 0 34-15 34-34l0-220c0-18-15-34-34-34l-355 0c-19 0-34 16-34 34l0 220c0 19 15 34 34 34z m355-287l-355 0c-19 0-34 15-34 33l0 220c0 19 15 34 34 34l355 0c19 0 34-15 34-34l0-220c0-18-15-33-34-33z m-355 253l0-220 355 0 0 220z m25-40l220 0 0-34-220 0z m0-48l119 0 0-34-119 0z"/>
<glyph glyph-name="activity" unicode="&#66;" d="M256 0c-141 0-256 115-256 256 0 141 115 256 256 256 141 0 256-115 256-256 0-141-115-256-256-256z m0 475c-121 0-219-98-219-219 0-121 98-219 219-219 121 0 219 98 219 219 0 121-98 219-219 219z m29-134c-5-5-12-8-18-8-7 0-14 3-18 8-5 5-8 11-8 18-1 11 5 21 15 25 10 4 22 2 29-7 4-5 7-11 7-18 0-7-3-13-7-18z m2-219l-41 0 0 188 41 0z"/>
<glyph glyph-name="arrow" unicode="&#67;" d="M256 128l-256 256 512 0z"/>
<glyph glyph-name="pin" unicode="&#68;" d="M256 0c-3 0-6 1-9 3-8 5-203 137-203 295 0 56 21 110 61 151 39 40 93 63 149 63 56 1 111-21 150-61 41-39 63-93 64-149l0-4c0-159-195-290-203-296-3-2-6-2-9-2z m0 479l-2 0c-99-1-178-82-177-181 0-123 141-234 179-262 38 28 179 140 179 262l0 3c-1 99-81 178-179 178z m2-265c-45 0-82 37-82 82 0 46 37 83 82 83 46 0 83-37 83-83 0-45-37-82-83-82z m0 132c-27 0-49-22-49-50 0-27 22-49 49-49 27 0 50 22 50 49 0 28-23 50-50 50z"/>
<glyph glyph-name="plus" unicode="&#69;" d="M256 0c-141 0-256 115-256 256 0 141 115 256 256 256 141 0 256-115 256-256 0-141-115-256-256-256z m0 467c-117 0-211-94-211-211 0-117 94-211 211-211 117 0 211 94 211 211 0 117-94 211-211 211z m-22-100l44 0 0-222-44 0z m-89-89l222 0 0-44-222 0z"/>
<glyph glyph-name="attractions" unicode="&#70;" d="M447 312l-415 0c-15 1-26 13-25 28 0 9 6 18 14 22l211 104c15 8 32 8 48 0l210-104c7-3 11-9 13-16 3-6 2-14-1-20-5-8-13-13-22-14z m-191 128c-4 0-7-1-10-2l-190-94 400 0-190 94c-3 1-7 2-10 2z m-191-331c-9 0-16 8-16 16l0 195c0 9 7 16 16 16 9 0 16-7 16-16l0-195c0-8-7-16-16-16z m380-1c-9 0-16 7-16 16l0 207c0 9 7 16 16 16 8 0 16-7 16-16l0-207c0-9-8-16-16-16z m36-68l-449 0c-9 0-17 4-23 10-6 6-9 15-9 23 0 4 1 8 3 11l12 32c5 12 16 20 29 20l424 0c13 0 24-8 29-20l12-32c4-8 4-16 0-24-3-8-9-14-17-17-3-2-7-3-11-3z m-14 64l-423 0-12-32 448 0z m-280 11c-9 0-16 7-16 16l0 121c-2 7-8 12-15 11l-3 0c-7 1-13-4-14-11l0-121c0-9-7-16-16-16-9 0-16 7-16 16l0 123c0 0 0 1 0 2 3 23 24 41 48 39 24 2 45-16 48-39 0 0 0-2 0-2l0-123c0-5-2-9-5-12-3-3-7-5-11-4z m200 0c-9 0-16 7-16 16l0 121c-1 7-7 12-14 11l-3 0c-7 1-13-4-14-11l0-121c0-9-8-16-16-16-9 0-16 7-16 16l0 123c0 0 0 1 0 2 3 23 24 41 48 39 24 2 45-16 48-39 0-1 0-2 0-2l0-123c0-5-2-9-5-12-3-3-8-5-12-4z m-100 0c-9 0-16 7-16 16l0 121c-1 7-8 12-14 11l-3 0c-7 1-13-4-15-11l0-121c0-9-7-16-16-16-9 0-16 7-16 16l0 123c0 0 0 1 0 2 3 23 24 41 48 39 24 2 46-16 48-39 0-1 0-2 0-2l0-123c0-5-1-9-5-12-3-3-7-5-11-4z"/>
<glyph glyph-name="bin" unicode="&#71;" d="M407 0l-302 0 0 349 302 0z m-256 47l210 0 0 256-210 0z m303 256l-396 0 0 139 396 0z m-349 46l302 0 0 47-302 0z m232 47l-162 0 0 116 162 0z m-116 46l70 0 0 23-70 0z m70-202l46 0 0-163-46 0z m-78-77l47 0 0-86-47 0z"/>
<glyph glyph-name="radio-selected" unicode="&#72;" d="M256 0c-141 0-256 115-256 256 0 141 115 256 256 256 141 0 256-115 256-256 0-141-115-256-256-256z m0 492c-130 0-236-106-236-236 0-130 106-236 236-236 130 0 236 106 236 236-1 130-106 235-236 236z m195-236c0-107-88-195-195-195-107 0-195 88-195 195 0 107 88 195 195 195 107 0 195-88 195-195z m-195-195c-107 0-195 88-195 195 0 107 88 195 195 195 107 0 195-88 195-195-1-107-88-194-195-195z m0 369c-96 0-174-78-174-174 0-96 78-174 174-174 96 0 174 78 174 174 0 96-78 174-174 174z"/>
<glyph glyph-name="scans" unicode="&#73;" d="M223 51l-113 0c-10 0-20 4-27 11-8 7-12 17-12 27l0 73c0 7-5 13-12 13-7 0-13-6-13-13l0-73c0-17 7-33 19-45 12-12 28-19 45-18l113 0c4-1 7 1 9 3 3 2 4 5 4 9 1 3-1 6-3 9-2 2-5 4-9 4z m65 410l113 0c21 0 38-17 38-38l0-175c0-5 2-10 6-13 4-2 10-2 14 0 4 3 6 8 6 13l0 175c0 35-29 63-64 63l-113 0c-7 0-11-6-11-12 0-7 4-12 11-13z m-229-226c4 0 7 1 9 4 2 2 3 5 3 9l0 175c0 10 4 20 12 27 7 7 17 11 27 11l113 0c7 0 13 6 13 13-1 7-6 12-13 12l-113 0c-35 0-63-28-63-63l0-175c-1-4 1-7 3-10 3-2 6-3 9-3z m393-61c-7 0-13-5-13-12l0-73c0-21-17-38-38-38l-113 0c-5 0-10-2-13-6-2-4-3-9 0-13 2-5 7-7 12-7l114 0c35 0 63 29 64 64l0 73c-1 7-6 13-13 13z m43 44l-479 0c-7 0-12-6-12-13 0-7 6-12 12-13l479 0c6 1 11 6 12 13 0 6-5 12-11 13z m-246 203l-139 0 0-140 139 0z m-25-114l-89 0 0 88 89 0z m72 114l-26 0 0-64 26 0z m76-87l-101 0 0-100 101 0z m-26-76l-50 0 0 51 50 0z m-99-26l0 25-87 0 0-25z m-112-65l-25 0 0-69 146 0 0 25-121 0z m278 254l-96 0 0-26 71 0 0-69 25 0z m-96-70l36 0 0 25-36 0z m71-107l25 0 0 38-25 0z m-224-79l0-25 66 0 0 25z m105 7l0-25 63 0 0-24-17 0 0-25 99 0 0 76-26 0 0-51-31 0 0 49z m-73 193l-38 0 0-38 38 0z m142-63l-34 0 0-35 34 0z m-228-69l25 0 0 32-25 0z"/>
<glyph glyph-name="tickbox" unicode="&#75;" d="M477 0l-442 0c-19 0-35 16-35 35l0 460c0 9 8 17 17 17l319 0 0-34-302 0 0-443c0 0 1-1 1-1l442 0 1 248 34 0 0-247c0-19-16-35-35-35z m-256 159l-105 98 23 25 82-76 262 246 24-25z"/>
<glyph glyph-name="upload-1" unicode="&#76;" d="M166 120l180 0 0 181 121 0-211 211-211-211 121 0z m-121-60l422 0 0-60-422 0z"/>
<glyph glyph-name="vid" unicode="&#77;" d="M119 495l274 0c9 0 17-8 17-17l0-444c0-9-8-17-17-17l-274 0c-9 0-17 8-17 17l0 444c0 9 8 17 17 17z m274-17l0-444-274 0 0 444 274 0m0 34l-274 0c-18 0-34-15-34-34l0-444c0-19 16-34 34-34l274 0c18 0 34 15 34 34l0 444c0 19-16 34-34 34z m-291-85l291 0 0-34-291 0z m0-308l291 0 0-34-291 0z m128 342l52 0c4 0 8-4 8-9 0-4-4-8-8-8l-52 0c-4 0-8 4-8 8 0 5 4 9 8 9z m52 0l-52 0c-4 0-8-4-8-9 0-4 4-8 8-8l52 0c4 0 8 4 8 8 0 5-4 9-8 9z m-103 0l17 0c5 0 9-4 9-9 0-4-4-8-9-8l-17 0c-5 0-8 4-8 8 0 5 3 9 8 9z m17 0l-17 0c-5 0-8-4-8-9 0-4 3-8 8-8l17 0c5 0 9 4 9 8 0 5-4 9-9 9z m120 0l17 0c5 0 8-4 8-9 0-4-3-8-8-8l-17 0c-5 0-9 4-9 8 0 5 4 9 9 9z m17 0l-17 0c-5 0-9-4-9-9 0-4 4-8 9-8l17 0c5 0 8 4 8 8 0 5-3 9-8 9z m-86-393l18 0c4 0 8-4 8-8 0-5-4-9-8-9l-18 0c-4 0-8 4-8 9 0 4 4 8 8 8z m18 0l-18 0c-4 0-8-4-8-8 0-5 4-9 8-9l18 0c4 0 8 4 8 9 0 4-4 8-8 8z"/>
<glyph glyph-name="x" unicode="&#78;" d="M0 445l67 67 445-445-67-67z m0-378l445 445 67-67-445-445z"/>
<glyph glyph-name="group" unicode="&#79;" d="M85 324c-47 0-85 38-85 86 0 47 38 85 85 85 47 0 86-38 86-85 0-48-39-86-86-86z m0 137c-28 0-51-23-51-51 0-29 23-52 51-52 29 0 52 23 52 52 0 28-23 51-52 51z m325-120c-48 0-86 39-86 86 0 47 38 85 86 85 47 0 85-38 85-85 0-47-38-86-85-86z m0 137c-29 0-52-23-52-51 0-29 23-52 52-52 28 0 51 23 51 52 0 28-23 51-51 51z m17-478c-47 0-86 38-86 85 0 47 39 86 86 86 47 0 85-39 85-86 0-47-38-85-85-85z m0 137c-29 0-52-23-52-52 0-28 23-51 52-51 28 0 51 23 51 51 0 29-23 52-51 52z m-342-120c-47 0-85 38-85 85 0 48 38 86 85 86 47 0 86-38 86-86 0-47-39-85-86-85z m0 137c-28 0-51-23-51-52 0-28 23-51 51-51 29 0 52 23 52 51 0 29-23 52-52 52z m203-22c-61 0-111 50-111 111 0 61 50 111 111 111 62 0 111-50 111-111 0-61-49-111-111-111z m0 188c-42 0-76-35-76-77 0-42 34-77 76-77 43 0 77 35 77 77 0 42-34 77-77 77z m-173 44l21 26 87-68-21-27z m215-37l43 60 28-21-44-59z m7-174l24 25 37-37-24-24z m-204-3l60 44 20-28-61-44z"/>
<glyph glyph-name="filtered" unicode="&#80;" d="M511 497c5-8 3-19-5-25l-179-179 0-269c1-10-5-19-14-22l-9 0c-6 0-12 3-16 7l-95 94c-4 4-7 10-6 16l0 174-179 179c-8 6-10 17-5 25 3 9 11 15 21 15l464 0c10 1 20-5 23-15z"/>
<glyph glyph-name="eye2" unicode="&#81;" d="M259 73l-6 0c-113 0-214 71-252 177-1 4-1 8 0 12 39 107 141 178 255 177 114 1 216-70 255-177 1-4 1-8 0-12-39-106-139-177-252-177z m-3 37l3 0c95 0 180 58 215 146-35 89-122 147-218 146-96 1-182-57-218-146 35-88 120-146 215-146z m0 36c-61 0-110 49-110 110 0 61 49 110 110 110 61 0 110-49 110-110 0-61-49-110-110-110z m0 183c-40 0-73-33-73-73 0-40 33-73 73-73 40 0 73 33 73 73 0 40-33 73-73 73z m238-329c-5 0-10 2-13 5l-476 476c-7 7-7 19 0 26 7 7 19 7 26 0l476-476c3-3 5-8 5-13 0-5-2-9-5-13-4-3-8-5-13-5z"/>
<glyph glyph-name="eye-1" unicode="&#82;" d="M257 73l-2 0c-56 0-111 17-158 50-45 31-78 76-96 128-1 4-1 8 0 12 18 51 52 95 96 126 47 33 102 50 159 50 57 0 112-17 159-50 45-31 78-76 96-128 1-4 1-8 0-12-18-52-51-97-96-128-47-32-102-49-158-48z m-1 37l1 0c49 0 97 15 137 43 36 25 65 61 80 103-15 42-44 78-80 103-41 28-89 44-138 43-49 1-97-15-138-43-36-25-64-61-80-103 16-42 44-78 80-103 40-29 89-44 138-43z m0 36c-61 0-110 49-110 110 0 61 49 110 110 110 61 0 110-49 110-110 0-61-49-110-110-110z m0 183c-40 0-73-33-73-73 0-40 33-73 73-73 40 0 73 33 73 73 0 40-33 73-73 73z"/>
<glyph glyph-name="dashboard-1" unicode="&#83;" d="M496 0l-213 0c-9 0-16 7-16 16l0 267c0 9 7 16 16 16l213 0c9 0 16-7 16-16l0-267c0-9-7-16-16-16z m-197 32l181 0 0 235-181 0z m-70-32l-213 0c-9 0-16 7-16 16l0 160c0 9 7 16 16 16l213 0c9 0 16-7 16-16l0-160c0-9-7-16-16-16z m-197 32l181 0 0 128-181 0z m197 181l-213 0c-9 0-16 7-16 16l0 267c0 9 7 16 16 16l213 0c9 0 16-7 16-16l0-267c0-9-7-16-16-16z m-197 32l181 0 0 235-181 0z m464 75l-213 0c-9 0-16 7-16 16l0 160c0 9 7 16 16 16l213 0c9 0 16-7 16-16l0-160c0-9-7-16-16-16z m-197 32l181 0 0 128-181 0z"/>
<glyph glyph-name="export" unicode="&#84;" d="M186 140c-13 0-23 10-23 23 0 141 114 256 256 256l70 0c8 0 16-4 20-12 5-7 5-16 0-23-4-8-12-12-20-12l-70 0c-116 0-210-93-210-209 0-13-10-23-23-23z m210 139c-10 0-18 6-22 14-4 9-2 19 5 26l0 0 77 77-77 76c-6 6-9 15-7 23 2 8 9 15 17 17 8 2 17-1 23-7l93-93c9-9 9-24 0-33l0 0-93-93c-4-4-10-7-16-7z m93-279l-466 0c-13 0-23 10-23 23l0 466c0 12 10 23 23 23l233 0c8 0 16-4 21-12 4-7 4-16 0-23-5-8-13-12-21-12l-209 0 0-418 418 0 0 205c0 9 4 17 12 21 7 4 16 4 23 0 8-4 12-12 12-21l0-229c0-13-11-23-23-23z"/>
<glyph glyph-name="edit" unicode="&#85;" d="M0 0l44 177 269 269 133-133-269-269z m75 160l-29-114 114 29 239 239-85 85z m73-105c-11 46-47 82-93 93l8 33c57-14 102-59 116-117l-32-9z m-3 65l-24 25 236 236 23-23z m314 206l-133 133 53 53 9-1c64-8 115-59 124-123l1-9z m-84 133l86-86 16 17c-9 43-42 76-85 85z"/>
<glyph glyph-name="chevron-down" unicode="&#86;" d="M256 214l174 167c5 4 12 4 16 0l31-30c4-5 4-12 0-16l-213-204c-2-2-5-3-8-3-3 0-6 1-8 3l-213 204c-4 4-4 11 0 16l31 30c4 4 12 4 16 0z"/>
<glyph glyph-name="chevron-left" unicode="&#87;" d="M214 256l167 174c4 4 4 11 0 16l-30 30c-4 5-11 5-16 1l-204-213c-2-2-3-5-3-8 0-3 1-6 3-8l204-213c5-4 12-4 16 0l30 31c4 4 4 11 0 16z"/>
<glyph glyph-name="chevron-right" unicode="&#88;" d="M298 256l-167 174c-4 4-4 11 0 16l30 30c5 5 12 5 16 1l204-213c2-2 3-5 3-8 0-3-1-6-3-8l-204-213c-4-4-11-4-16 0l-30 31c-4 4-4 11 0 16z"/>
<glyph glyph-name="chevron-up" unicode="&#89;" d="M256 298l174-167c5-4 12-4 16 0l31 30c4 4 4 11 0 16l-213 204c-2 2-5 3-8 3-3 0-6-1-8-3l-213-204c-4-5-4-12 0-16l31-30c4-4 12-4 16 0z"/>
<glyph glyph-name="clockhands" unicode="&#90;" d="M381 50l-187 106c-14 8-23 24-23 41l0 289c0 14-12 26-27 26-14 0-26-12-26-26l0-330c0-10 5-18 13-23l223-129c6-4 13-5 20-3 7 2 13 6 16 12l0 1c8 12 3 28-9 36z"/>
<glyph glyph-name="create-scan" unicode="&#49;" d="M17 341c-9 0-17 8-17 17l0 137c1 9 8 16 17 16 9 0 17-7 17-16l0-137c0-9-7-17-17-17z m137 137l-137 0c-9 0-16 8-16 17 0 9 7 16 16 17l137 0c9-1 16-8 16-17 0-9-7-17-16-17z m-137-478c-9 0-17 8-17 17l0 137c1 9 8 16 17 16 9 0 17-7 17-16l0-137c0-9-7-17-17-17z m137 0l-137 0c-9 1-16 8-16 17 0 9 7 17 16 17l137 0c9 0 16-8 16-17 0-9-7-16-16-17z m341 341c-10 0-17 8-17 17l0 137c0 9 8 16 17 16 9 0 16-7 17-16l0-137c0-9-8-17-17-17z m0 137l-137 0c-9 0-16 8-16 17 0 9 7 16 16 17l137 0c9-1 16-8 16-17 0-9-7-17-16-17z m0-478c-10 0-17 8-17 17l0 137c0 9 8 16 17 16 9 0 16-7 17-16l0-137c0-9-8-17-17-17z m0 0l-137 0c-9 1-16 8-16 17 0 9 7 17 16 17l137 0c9 0 16-8 16-17 0-9-7-16-16-17z m-101 239l-276-1c-5 0-9 8-9 17 0 10 4 18 9 18l276 1c5 0 9-8 9-17 0-10-4-18-9-18z"/>
<glyph glyph-name="transactions-1" unicode="&#50;" d="M68 429c8-7 20-7 27 0l17 18 0-179c1-10 9-18 19-18 11 0 19 8 19 18l0 179 18-18c3-3 8-5 13-5 8 0 15 5 18 12 3 7 1 15-5 20l-49 50c-8 8-20 8-27 0l-50-50c-7-7-7-19 0-27z m376-374c6 8 5 19-2 26-7 7-18 8-25 1l-17-17 0 179c0 10-9 19-19 19-11 0-19-9-19-19l0-179-18 17c-7 7-19 6-26-1-7-7-7-18-1-26l50-49c4-4 8-6 13-6 5 0 10 2 14 6z m-188 457c-10-1-18-9-18-19 0-11 8-19 18-19 113 0 205-92 205-206 0-10 9-19 19-19 11 0 19 9 19 19 0 135-109 244-243 244z m0-449c-113 0-205 92-205 205 0 11-9 19-19 19-11 0-19-8-19-19 0-134 109-243 243-243 10 0 18 9 18 19 0 11-8 19-18 19z"/>
<glyph glyph-name="passes" unicode="&#53;" d="M360 271l-135 0c-9 0-15-7-15-15 0-9 6-16 15-16l135 0c9 0 15 7 15 16 0 8-6 15-15 15z m-72 59l-63 0c-9 0-15-7-15-16 0-8 6-15 15-15l63 0c8 0 15 7 15 15 0 9-7 16-15 16z m72-118l-135 0c-9 0-15-7-15-15 0-9 6-16 15-16l135 0c9 0 15 7 15 16 0 8-6 15-15 15z m-238 112c-1 0-2 0-3 0-10-1-21-4-30-9-23-14-36-38-36-65 0-12 3-23 8-34 12-23 34-39 61-39 5 0 10 1 15 2 31 7 54 36 54 71 0 41-31 74-69 74z m0-117c-12 0-24 6-31 16-6 8-10 18-10 27 0 19 12 35 29 41 4 2 8 2 12 2 22 0 41-19 41-43 0-23-19-43-41-43z m370 136l-65 21 0 15c0 16-12 29-27 29l-110 0-133 43c-15 5-30-4-34-19l-7-24-88 0c-16 0-28-13-28-29l0-251c0-17 12-30 28-30l268 0 116-37c7-2 15-2 21 2 6 4 11 10 13 17l65 227c4 15-4 31-19 36z m-344 80c0 1 0 1 1 1 0 0 0 0 0 0l50-16-56 0z m62-297l-182 0c-1 0-1 0-1 1-1 0-1 0-1 1l0 251c0 0 0 1 1 1 0 0 0 0 1 0l372 0c1 0 1 0 1-1l0-251c0-1 0-2-1-2z m211-37c0-1 0-1 0-1-1 0-1 0-1 0l-33 10 13 0c15 0 27 13 27 30l0 207 58-19c1 0 1-1 1-1z"/>
<glyph glyph-name="vid-1" unicode="&#51;" d="M155 489c-15 0-28-13-28-29l0-409c0-15 13-28 28-28l202 0c15 0 28 13 28 28l0 409c0 16-13 29-28 29z m0 19l202 0c26 0 47-21 47-48l0-409c0-26-21-47-47-47l-202 0c-26 0-47 21-47 47l0 409c0 27 21 48 47 48z m202-508l-202 0c-28 0-51 23-51 51l0 409c0 29 23 52 51 52l202 0c28 0 51-23 51-52l0-409c0-28-23-51-51-51z m-202 503c-23 0-43-19-43-43l0-409c0-23 20-42 43-42l202 0c23 0 43 19 43 42l0 409c0 24-20 43-43 43z m202-484l-202 0c-18 0-32 15-32 32l0 409c0 18 14 33 32 33l202 0c18 0 32-15 32-33l0-409c0-18-14-32-32-32z m-202 465c-13 0-24-10-24-24l0-409c0-13 11-24 25-24l201 0c13 1 24 11 24 24l0 409c0 14-11 24-24 24z m-34-385l0 19 277 0 0-19z m281-5l-286 0 0 28 286 0z m-277 9l268 0 0 10-268 0z m150-39c0-10-9-19-19-19-10 0-19 9-19 19 0 11 9 19 19 19 10 0 19-8 19-19z m-19-23c-13 0-23 10-23 23 0 13 10 23 23 23 13 0 23-10 23-23 0-13-10-23-23-23z m0 38c-8 0-15-7-15-15 0-8 7-15 15-15 8 0 15 7 15 15 0 8-7 15-15 15z m27 312l67 0 0-56-18 0 0 37-49 0z m-54 0l0-19-49 0 0-37-18 0 0 56z m54-170l0 19 49 0 0 38 18 0 0-57z m-54 0l-67 0 0 57 18 0 0-38 49 0z m126-4l-76 0 0 28 49 0 0 37 27 0z m-67 9l58 0 0 48-10 0 0-38-48 0z m-55-9l-76 0 0 65 27 0 0-37 49 0z m-67 9l58 0 0 10-48 0 0 38-10 0z m189 104l-27 0 0 38-49 0 0 28 76 0z m-19 9l10 0 0 48-58 0 0-10 48 0z m-152-9l-27 0 0 66 76 0 0-28-49 0z m-18 9l10 0 0 38 48 0 0 10-58 0z"/>
<glyph glyph-name="statements" unicode="&#74;" d="M336 0l-288 0c-13 0-25 5-34 14-9 9-14 21-14 34l0 352c0 4 2 8 5 11l96 96c3 3 7 5 11 5l224 0c13 0 25-5 34-14 9-9 14-21 14-34 0-10-6-16-16-16-10 0-16 6-16 16 0 10-6 16-16 16l-218 0-86-86 0-346c0-10 6-16 16-16l288 0c10 0 16 6 16 16 0 10 6 16 16 16 10 0 16-6 16-16 0-13-5-25-14-34-9-9-21-14-34-14z m32 240l-32 0c-26 0-47 22-47 48 0 26 21 47 47 48l32 0c13 0 25-5 34-14 9-9 14-21 14-34 0-10-6-16-16-16-10 0-16 6-16 16 0 10-6 16-16 16l-32 0c-10 0-16-6-16-16 0-10 6-16 16-16l32 0c10 0 16-6 16-16 0-10-6-16-16-16z m0-64l-32 0c-13 0-25 5-34 14-9 9-14 21-14 34 0 10 6 16 16 16 10 0 16-6 16-16 0-10 6-16 16-16l32 0c10 0 16 6 16 16 0 10-6 16-16 16l-32 0c-10 0-16 6-16 16 0 10 6 16 16 16l32 0c17 0 34-9 42-24 9-15 9-33 0-48-8-15-25-24-42-24z m-16 128c-10 0-16 6-16 16l0 32c0 10 6 16 16 16 10 0 16-6 16-16l0-32c0-10-6-16-16-16z m0-160c-10 0-16 6-16 16l0 32c0 10 6 16 16 16 10 0 16-6 16-16l0-32c0-10-6-16-16-16z m0-48c-88 0-160 72-160 160 0 88 72 160 160 160 88 0 160-72 160-160 0-88-72-160-160-160z m0 288c-71 0-128-57-128-128 0-71 57-128 128-128 71 0 128 57 128 128 0 71-57 128-128 128z m-272 0l-64 0c-10 0-16 6-16 16 0 10 6 16 16 16l64 0c10 0 16 6 16 16l0 64c0 10 6 16 16 16 10 0 16-6 16-16l0-64c0-13-5-25-14-34-9-9-21-14-34-14z m64-320l-32 0c-13 0-25 5-34 14-9 9-14 21-14 34l0 32c0 10 6 16 16 16 10 0 16-6 16-16l0-32c0-10 6-16 16-16l32 0c10 0 16-6 16-16 0-10-6-16-16-16z"/>
<glyph glyph-name="tick" unicode="&#48;" d="M169 86l-163 152c-5 4-7 11-6 18 2 6 7 12 13 14 7 1 14 0 19-5l138-128 310 284c8 7 20 6 27-1 7-8 6-20-2-26z"/>
<glyph glyph-name="truck" unicode="&#52;" d="M397 329c-3 4-8 7-13 7l-16 0c-9 0-16-7-16-16l0-96c0-9 7-16 16-16l64 0c9 0 16 7 16 16l0 24c0 3-1 6-3 9z m35-105l-64 0 0 96 16 0 48-72z m72 43l-64 96c-9 13-24 21-40 21l-64 0 0 32c0 26-22 48-48 48l-240 0c-26 0-48-22-48-48l0-176c0-26 22-48 48-48l0-48c0-26 22-48 48-48l18 0c7-28 32-48 62-48 30 0 55 20 62 48l84 0c7-28 32-48 62-48 30 0 55 20 62 48l18 0c26 0 48 22 48 48l0 96c0 10-3 19-8 27z m-456-43c-9 0-16 7-16 16l0 176c0 9 7 16 16 16l240 0c9 0 16-7 16-16l0-176c0-9-7-16-16-16z m128-144c-18 0-32 14-32 32 0 18 14 32 32 32 18 0 32-14 32-32 0-18-14-32-32-32z m208 0c-18 0-32 14-32 32 0 18 14 32 32 32 18 0 32-14 32-32 0-18-14-32-32-32z m96 64c0-9-7-16-16-16l-18 0c-7 28-32 48-62 48-30 0-55-20-62-48l-84 0c-7 28-32 48-62 48-30 0-55-20-62-48l-18 0c-9 0-16 7-16 16l0 48 208 0c26 0 48 22 48 48l0 112 64 0c5 0 10-3 13-7l64-96c2-3 3-6 3-9z"/>
<glyph glyph-name="delivery-mapping" unicode="&#54;" d="M335 195c-2 0-5-2-5-5 0-3-2-7-6-10-2-2-2-5 0-7 1-1 2-2 4-2 1 0 2 1 3 1 6 6 9 12 9 18l0 0c0 3-2 5-5 5z m-30-25c-5-2-10-3-15-4-3-1-5-3-5-6 1-3 3-4 5-4 1 0 1 0 1 0 6 1 12 2 17 4 2 1 4 3 3 6-1 3-4 5-6 4z m-78-5c-6 1-11 2-16 3-3 1-5 0-6-3-1-3 1-6 3-6 5-2 11-3 16-4 1 0 1 0 1 0 3 0 5 1 5 4 1 3-1 6-3 6z m-21 50c0 3-4 5-6 3-6-2-12-5-16-7-2-2-3-5-1-7 1-2 3-2 4-2 1 0 2 0 3 0 4 3 8 5 14 7 2 1 4 4 2 6z m-24-27c-1 2-3 4-6 3-3-1-4-4-4-7 2-5 6-10 13-14 1-1 2-1 3-1 1 0 3 1 4 2 1 2 1 5-2 7-4 3-7 6-8 10z m84-25c-3 0-7 0-10 0-2 0-4 0-6 0-3 0-5-2-5-5 0-3 2-6 4-6 2 0 5 0 7 0 3 0 7 0 10 1 3 0 5 2 5 5 0 3-2 5-5 5z m59 43c1 2 1 6-2 7-4 2-10 5-16 7-3 1-6 0-6-3-1-3 0-6 3-7 5-2 10-4 14-6 1 0 1-1 2-1 3 1 4 1 5 3z m-69 255c-53 0-97-43-97-96 0-16 4-32 13-47 6-11 14-21 23-30 3-4 6-7 9-11 10-12 19-27 25-42 2-3 3-6 4-9-3 0-6-1-9-1-3-1-4-3-4-6 0-2 2-4 5-4 0 0 0 0 1 0 3 0 6 1 10 1 0-3 1-6 2-9l0-1c0-4 1-8 2-12 2-4 5-7 9-8 2-1 4-2 7-2 2 0 5 1 7 2 3 1 6 4 8 8 1 4 2 8 3 12l0 1c0 3 1 6 2 9 1 0 3 0 5-1 0 0 0 0 1 0 2 0 4 2 5 5 0 3-2 5-5 6-1 0-2 0-3 0 1 3 2 6 3 9 6 15 15 30 25 42 3 4 7 8 10 11 8 9 16 19 23 30 8 15 12 31 12 47 1 53-43 96-96 96z m75-138c-5-10-13-19-21-28-3-4-6-8-10-12-10-13-20-28-27-45-4-10-8-21-9-30l0-1c-1-3-1-6-2-9-1-1-2-3-3-4-1 0-4 0-5 0-2 1-3 3-3 4-1 2-2 6-2 9l0 1c-2 10-5 20-9 30-7 16-17 32-27 45-4 4-7 8-10 12-8 9-16 18-22 28-7 13-11 27-11 42 0 47 39 86 87 86 47 0 85-39 85-86 0-14-3-29-11-42z m-270 153c0-5-5-10-11-10-6 0-10 5-10 10 0 6 4 11 10 11 6 0 11-5 11-11z"/>
<glyph glyph-name="delivery-options" unicode="&#55;" d="M415 349c-7 13-20 21-34 21l-64 0 0 43c0 15-12 27-27 27l-150 0c-15 0-27-12-27-27l0-9 15 0 0 9c0 6 6 12 12 12l150 0c7 0 12-6 12-12l0-191-80 0c-5 23-26 37-48 32-16-3-29-16-32-32l-34 0c-4 0-8-3-8-7 0-4 4-8 8-8l34 0c4-22 26-37 48-32 16 3 29 16 32 32l105 0c4-22 25-37 47-32 17 3 29 16 32 32l26 0c4 0 8 3 8 8l0 82c0 1 0 2-1 3z m-233-159c-14 0-25 11-25 25 0 14 11 25 25 25 14 0 25-11 25-25 0-14-11-25-25-25z m199 165c9 0 16-5 20-13l24-47 0-5-108 0 0 65z m-14-165c-14 0-25 11-25 25 0 14 11 25 25 25 14 0 25-11 25-25 0-14-11-25-25-25z m40 32c-4 23-26 37-48 32-16-3-29-16-32-32l-10 0 0 52 108 0 0-52z m-314 143c0 4 4 8 8 8l111 0c4 0 8-3 8-8 0-4-3-7-8-7l-111 0c-4 0-8 3-8 7z m-21-42c0 4 3 8 7 8l113 0c4 0 8-3 8-8 0-4-3-8-8-8l-113 0c-4 0-7 4-7 8z m128-42c0-4-3-8-8-8l-80 0c-4 0-8 3-8 8 0 4 4 8 8 8l80 0c4 0 8-4 8-8z"/>
</font>
</defs>
</svg>
